<?xml version="1.0" encoding="utf-8"?>
<!-- Generator: Adobe Illustrator 24.0.0, SVG Export Plug-In . SVG Version: 6.00 Build 0)  -->
<svg version="1.1" id="Capa_1" xmlns="http://www.w3.org/2000/svg" xmlns:xlink="http://www.w3.org/1999/xlink" x="0px" y="0px"
	 viewBox="0 0 512 512" style="enable-background:new 0 0 512 512;" xml:space="preserve">
<style type="text/css">
	.st0{fill:#FFFFFF;}
</style>
<g>
	<g>
		<g>
			<path class="st0" d="M196.9,0C107.1,0,34,73.1,34,163v237.5c0,22.1,6.4,43.3,18.5,61.5c2.3,3.4,7,4.4,10.4,2.1
				c3.4-2.3,4.4-7,2.1-10.4c-10.5-15.7-16-34.1-16-53.2V163c0-81.6,66.4-148,148-148s148,66.4,148,148c0,77.5-29.1,116.4-59.9,157.6
				c-21,28.1-42.6,57.1-54.5,98.8c-8,28.1-18.6,47.8-32.4,60.1c-13.3,11.9-29.8,17.4-51.8,17.4c-21.7,0-42.1-6.8-59.2-19.6
				c-3.3-2.5-8-1.8-10.5,1.5c-2.5,3.3-1.8,8,1.5,10.5c19.7,14.8,43.3,22.7,68.2,22.7c50.9,0,81.3-27.3,98.6-88.5
				c11.1-39.1,31-65.7,52.1-93.9c30.9-41.4,62.8-84.1,62.8-166.6C359.9,73.1,286.8,0,196.9,0z"/>
			<path class="st0" d="M257.8,89c-19.2-15.3-43.2-23.7-67.8-23.7C130,65.2,81.3,114,81.3,174c0,4.1,3.4,7.5,7.5,7.5
				s7.5-3.4,7.5-7.5c0-15.4,3.7-30,10.4-42.8c16.4-10.8,52.7-8.6,78.9,10.9c36.1,26.8,28.2,66.9,20.3,88.3c-1.4,3.9,0.6,8.2,4.4,9.6
				c0.9,0.3,1.7,0.5,2.6,0.5c3.1,0,5.9-1.9,7-4.9c8.5-23.2,10-44.6,4.4-63.7c-4.9-16.5-15.2-31-29.8-41.9
				c-21.5-16-50.3-22.9-73.4-19.5c17.1-18.6,41.7-30.3,68.9-30.3c21.4,0,41.6,7.1,58.4,20.5c16.3,13,27.9,31.2,32.8,51.3
				c1,4,5,6.5,9,5.5c4-1,6.5-5,5.5-9C290.1,125.2,276.6,104,257.8,89z"/>
			<path class="st0" d="M106.2,356.6c7.1,20.9,24.4,35.1,46.1,37.9c3,0.4,6,0.6,8.9,0.6c14.7,0,27.3-5.2,38.3-15.7
				c10.9-10.4,18.5-24.4,25.3-36.9c3.4-6.2,6.5-12,9.8-16.9c0-0.1,0.1-0.1,0.1-0.2c5.1-8.1,10.6-16.1,16-23.8
				c23.2-33.6,45.2-65.4,47.9-117.1c0.2-4.1-3-7.7-7.1-7.9c-4.1-0.2-7.7,3-7.9,7.1c-2.5,47.5-23.2,77.6-45.2,109.4
				c-5.4,7.8-11,15.9-16.2,24.2c-3.6,5.5-7,11.6-10.5,18c-12.9,23.7-26.2,48.3-57.3,44.2c-16-2.1-28.6-12.5-33.9-27.9
				c-5.4-15.8-1.7-32.7,9.6-44c7.8-7.8,12.1-18.1,12.1-29.1c0-22.7-18.5-41.2-41.2-41.2c-4.1,0-7.5,3.4-7.5,7.5s3.4,7.5,7.5,7.5
				c14.5,0,26.2,11.8,26.2,26.2c0,7-2.7,13.6-7.7,18.5C104,312.5,99,335.3,106.2,356.6z"/>
			<path class="st0" d="M375.9,281.9c0-33.4,13-64.8,36.6-88.4c2.9-2.9,2.9-7.7,0-10.6s-7.7-2.9-10.6,0c-26.4,26.4-41,61.6-41,99
				c0,37.4,14.6,72.6,41,99c1.5,1.5,3.4,2.2,5.3,2.2s3.8-0.7,5.3-2.2c2.9-2.9,2.9-7.7,0-10.6C388.9,346.7,375.9,315.3,375.9,281.9z"
				/>
			<path class="st0" d="M465.5,281.9c0-9.4,3.7-18.3,10.4-25c2.9-2.9,2.9-7.7,0-10.6c-2.9-2.9-7.7-2.9-10.6,0
				c-9.5,9.5-14.8,22.2-14.8,35.6s5.2,26.1,14.8,35.6c1.5,1.5,3.4,2.2,5.3,2.2s3.8-0.7,5.3-2.2c2.9-2.9,2.9-7.7,0-10.6
				C469.2,300.2,465.5,291.4,465.5,281.9z"/>
			<path class="st0" d="M444.2,214.6c-2.9-2.9-7.7-2.9-10.6,0c-18,18-27.9,41.9-27.9,67.3c0,25.4,9.9,49.3,27.9,67.3
				c1.5,1.5,3.4,2.2,5.3,2.2c1.9,0,3.8-0.7,5.3-2.2c2.9-2.9,2.9-7.7,0-10.6c-15.2-15.2-23.5-35.3-23.5-56.7s8.4-41.5,23.5-56.7
				C447.1,222.3,447.1,217.6,444.2,214.6z"/>
		</g>
	</g>
</g>
</svg>
